<svg width="20" height="22" viewBox="0 0 20 22" fill="none" xmlns="http://www.w3.org/2000/svg">
<path d="M19.75 3.875C19.75 3.44402 19.5788 3.0307 19.274 2.72595C18.9693 2.4212 18.556 2.25 18.125 2.25H14.875V0.625H13.25V2.25H6.75V0.625H5.125V2.25H1.875C1.44402 2.25 1.0307 2.4212 0.725951 2.72595C0.421205 3.0307 0.25 3.44402 0.25 3.875V20.125C0.25 20.556 0.421205 20.9693 0.725951 21.274C1.0307 21.5788 1.44402 21.75 1.875 21.75H5.125V20.125H1.875V3.875H5.125V5.5H6.75V3.875H13.25V5.5H14.875V3.875H18.125V8.75H19.75V3.875Z" fill="white"/>
</svg>
